# xmcd
#
# Track frame offsets: 
#        150
#        12082
#        23230
#        34875
#        46332
#        56397
#        67650
#        76452
#        87222
#        98855
#        108457
#        119347
#        131800
#        142300
#        152880
#        163907
#        176659
#        186482
#        196542
#        207887
#        216930
#        230097
#        243115
#        254509
#        264005
#        276262
#        285380
#        296132
#        307352
#        317255
#
# Disc length: 4372 seconds
#
# Revision: 6
# Processed by: cddbd v1.5.2PL0 Copyright (c) Steve Scherf et al.
# Submitted via: ExactAudioCopy v0.95b2
#
DISCID=ba11121e
DTITLE=Various Artist - Crescent City Soul
DYEAR=1996
DGENRE=R&B
TTITLE0=Tommy Ridgley - Boogie Woogie Mama
TTITLE1=Fats Domino - Detroit City Blues
TTITLE2=Jewel King - 3 x 7 =21
TTITLE3=Dave Bartholomew - That's How You Got Killed Before
TTITLE4=Smiley Lewis - Tee-Nah Nah
TTITLE5=Archibald - Stack-A-Lee - Part 2
TTITLE6=Dave Bartholomew - Poppa Stoppa Theme Song
TTITLE7=Joe Turner - Jumpin' Tonight (aka Midnight Rockin')
TTITLE8=Dave Bartholomew - Ain't Gonna Do It
TTITLE9=Fats Domino - Every Night About This Time
TTITLE10=Archibald - Shake, Shake, Baby
TTITLE11=Dave Bartholomew - Good Jax Boogie
TTITLE12=Shirley and Lee - I'm Gone
TTITLE13=Tommy Ridgley - Looped
TTITLE14=Smiley Lewis - The Bells Are Ringing
TTITLE15=Dave Bartholomew - Who Drank My Beer While I Was In The Rear?
TTITLE16=Fats Domino - Goin' Home
TTITLE17=Smiley Lewis - Lillie Mae
TTITLE18=Archibald - Great Big Eyes (Those Little Reds)
TTITLE19=Dave Bartholomew - Little Girl Sing Ding-a-Ling
TTITLE20=Clarence 'Bon Ton' Garlow - Bon Ton Roulet (New Bon Ton Roula
TTITLE20=y)
TTITLE21=Lowell Fulson - You've Gotta Reap
TTITLE22=Fats Domino - Goin' To The River
TTITLE23=Bobby Mitchell - Baby's Gone
TTITLE24=Smiley Lewis - Blue Monday
TTITLE25=The Spiders - You're The One
TTITLE26=Jesse Allen - Sittin' And Wonderin'
TTITLE27=Smilin' Joe - ABC's (Part 1)
TTITLE28=Smilin' Joe - ABC's (Part 2)
TTITLE29=The Bees - Toy Bell
EXTD=YEAR: 1996
EXTT0=
EXTT1=
EXTT2=
EXTT3=
EXTT4=
EXTT5=
EXTT6=
EXTT7=
EXTT8=
EXTT9=
EXTT10=
EXTT11=
EXTT12=
EXTT13=
EXTT14=
EXTT15=
EXTT16=
EXTT17=
EXTT18=
EXTT19=
EXTT20=
EXTT21=
EXTT22=
EXTT23=
EXTT24=
EXTT25=
EXTT26=
EXTT27=
EXTT28=
EXTT29=
PLAYORDER=
